FILE "Might and Magic III - Isles of Terra (1993)(CRI)(JP).img" BINARY
  TRACK 01 MODE1/2352
    INDEX 01 00:00:00
  TRACK 02 AUDIO
    PREGAP 00:02:00
    INDEX 01 02:25:20
  TRACK 03 AUDIO
    INDEX 00 02:40:52
    INDEX 01 02:42:51
  TRACK 04 AUDIO
    INDEX 00 02:58:57
    INDEX 01 03:00:56
  TRACK 05 AUDIO
    INDEX 00 03:16:31
    INDEX 01 03:18:30
  TRACK 06 AUDIO
    INDEX 00 03:33:32
    INDEX 01 03:35:31
  TRACK 07 AUDIO
    INDEX 00 03:51:38
    INDEX 01 03:53:37
  TRACK 08 AUDIO
    INDEX 00 04:10:74
    INDEX 01 04:12:73
  TRACK 09 AUDIO
    INDEX 00 04:28:46
    INDEX 01 04:30:45
  TRACK 10 AUDIO
    INDEX 00 04:49:28
    INDEX 01 04:51:27
  TRACK 11 AUDIO
    INDEX 00 05:04:51
    INDEX 01 05:06:50
  TRACK 12 AUDIO
    INDEX 00 05:22:45
    INDEX 01 05:24:44
  TRACK 13 AUDIO
    INDEX 00 05:40:08
    INDEX 01 05:42:07
  TRACK 14 AUDIO
    INDEX 00 05:56:43
    INDEX 01 05:58:42
  TRACK 15 AUDIO
    INDEX 00 06:12:43
    INDEX 01 06:14:42
  TRACK 16 AUDIO
    INDEX 00 06:27:53
    INDEX 01 06:29:52
  TRACK 17 AUDIO
    INDEX 00 07:58:42
    INDEX 01 08:00:41
  TRACK 18 AUDIO
    INDEX 00 08:55:01
    INDEX 01 08:57:00
  TRACK 19 AUDIO
    INDEX 00 10:11:16
    INDEX 01 10:13:15
  TRACK 20 AUDIO
    INDEX 00 11:17:53
    INDEX 01 11:19:52
  TRACK 21 AUDIO
    INDEX 00 12:46:49
    INDEX 01 12:48:48
  TRACK 22 AUDIO
    INDEX 00 15:09:10
    INDEX 01 15:11:09
  TRACK 23 AUDIO
    INDEX 00 18:08:40
    INDEX 01 18:10:39
  TRACK 24 AUDIO
    INDEX 00 21:17:74
    INDEX 01 21:19:73
  TRACK 25 AUDIO
    INDEX 00 24:17:51
    INDEX 01 24:19:50
  TRACK 26 AUDIO
    INDEX 00 27:18:45
    INDEX 01 27:20:44
  TRACK 27 AUDIO
    INDEX 00 28:12:48
    INDEX 01 28:14:47
  TRACK 28 AUDIO
    INDEX 00 29:17:30
    INDEX 01 29:19:29
  TRACK 29 AUDIO
    INDEX 00 30:01:66
    INDEX 01 30:03:65
  TRACK 30 AUDIO
    INDEX 00 30:12:52
    INDEX 01 30:14:51
  TRACK 31 AUDIO
    INDEX 00 31:06:17
    INDEX 01 31:08:16
  TRACK 32 AUDIO
    INDEX 00 32:33:33
    INDEX 01 32:35:32
  TRACK 33 AUDIO
    INDEX 00 33:19:33
    INDEX 01 33:21:32
  TRACK 34 AUDIO
    INDEX 00 35:12:00
    INDEX 01 35:13:74
  TRACK 35 AUDIO
    INDEX 00 36:14:53
    INDEX 01 36:16:52
  TRACK 36 AUDIO
    INDEX 00 37:17:41
    INDEX 01 37:19:40
  TRACK 37 AUDIO
    INDEX 00 38:22:28
    INDEX 01 38:24:27
  TRACK 38 AUDIO
    INDEX 00 39:26:71
    INDEX 01 39:28:70
  TRACK 39 AUDIO
    INDEX 00 40:32:26
    INDEX 01 40:34:25
  TRACK 40 AUDIO
    INDEX 00 41:16:61
    INDEX 01 41:18:60
  TRACK 41 AUDIO
    INDEX 00 42:28:40
    INDEX 01 42:30:39
  TRACK 42 AUDIO
    INDEX 00 43:59:29
    INDEX 01 44:01:28
  TRACK 43 AUDIO
    INDEX 00 44:50:29
    INDEX 01 44:52:28
  TRACK 44 AUDIO
    INDEX 00 45:20:37
    INDEX 01 45:22:36
  TRACK 45 AUDIO
    INDEX 00 48:54:41
    INDEX 01 48:56:40
  TRACK 46 AUDIO
    INDEX 00 50:02:34
    INDEX 01 50:04:33
